<mxfile host="app.diagrams.net" agent="Mozilla/5.0 (Windows NT 10.0; Win64; x64) AppleWebKit/537.36 (KHTML, like Gecko) Chrome/131.0.0.0 Safari/537.36" version="25.0.3">
  <diagram name="Page-1" id="vWXAKYqAXVNleFayOKS6">
    <mxGraphModel dx="1434" dy="780" grid="1" gridSize="10" guides="1" tooltips="1" connect="1" arrows="1" fold="1" page="1" pageScale="1" pageWidth="850" pageHeight="1100" math="0" shadow="0">
      <root>
        <mxCell id="0" />
        <mxCell id="1" parent="0" />
        <mxCell id="FaHiJg0Yy64Cm1Oe79we-1" value="" style="rounded=0;whiteSpace=wrap;html=1;" vertex="1" parent="1">
          <mxGeometry x="240" y="120" width="470" height="300" as="geometry" />
        </mxCell>
        <mxCell id="FaHiJg0Yy64Cm1Oe79we-2" value="&lt;font style=&quot;font-size: 16px;&quot;&gt;УВОД&lt;/font&gt;" style="text;html=1;align=center;verticalAlign=middle;whiteSpace=wrap;rounded=0;" vertex="1" parent="1">
          <mxGeometry x="445" y="130" width="60" height="30" as="geometry" />
        </mxCell>
        <mxCell id="FaHiJg0Yy64Cm1Oe79we-3" value="&lt;font style=&quot;font-size: 16px;&quot;&gt;описание на наносателит/cubesat&lt;/font&gt;&lt;div&gt;&lt;font style=&quot;font-size: 16px;&quot;&gt;описание на модулине и изискванията към тях&lt;/font&gt;&lt;/div&gt;&lt;div&gt;&lt;font style=&quot;font-size: 16px;&quot;&gt;модул obc - описание и изисквания&lt;/font&gt;&lt;/div&gt;&lt;div&gt;&lt;font style=&quot;font-size: 16px;&quot;&gt;модул захранване - описание и изисквания&lt;/font&gt;&lt;/div&gt;&lt;div&gt;&lt;font style=&quot;font-size: 16px;&quot;&gt;модул комуникации - описание и изисквания&lt;/font&gt;&lt;/div&gt;&lt;div&gt;&lt;font style=&quot;font-size: 16px;&quot;&gt;модул навигация и мисия - описание&amp;nbsp;&lt;/font&gt;&lt;/div&gt;&lt;div&gt;&lt;font style=&quot;font-size: 16px;&quot;&gt;обзор на съществуващи модули&lt;/font&gt;&lt;/div&gt;&lt;div&gt;&lt;font style=&quot;font-size: 16px;&quot;&gt;видове архитетктури (микроконтролери, микрокомпютри и хибриди)&lt;/font&gt;&lt;/div&gt;" style="text;html=1;align=center;verticalAlign=middle;whiteSpace=wrap;rounded=0;" vertex="1" parent="1">
          <mxGeometry x="250" y="170" width="450" height="210" as="geometry" />
        </mxCell>
        <mxCell id="FaHiJg0Yy64Cm1Oe79we-4" value="" style="rounded=0;whiteSpace=wrap;html=1;" vertex="1" parent="1">
          <mxGeometry x="240" y="460" width="470" height="300" as="geometry" />
        </mxCell>
        <mxCell id="FaHiJg0Yy64Cm1Oe79we-5" value="&lt;font style=&quot;font-size: 16px;&quot;&gt;Теоритична част&lt;/font&gt;" style="text;html=1;align=center;verticalAlign=middle;whiteSpace=wrap;rounded=0;" vertex="1" parent="1">
          <mxGeometry x="407.5" y="480" width="135" height="30" as="geometry" />
        </mxCell>
        <mxCell id="FaHiJg0Yy64Cm1Oe79we-6" value="&lt;span style=&quot;font-size: 16px;&quot;&gt;усломия ва орериране&amp;nbsp;&lt;/span&gt;&lt;div&gt;&lt;span style=&quot;font-size: 16px;&quot;&gt;изискване към система за захранване&lt;/span&gt;&lt;/div&gt;&lt;div&gt;&lt;span style=&quot;font-size: 16px;&quot;&gt;изискване към система за комуникации&amp;nbsp;&lt;/span&gt;&lt;/div&gt;&lt;div&gt;&lt;span style=&quot;font-size: 16px;&quot;&gt;изискване за телеметрия и защита на вградените системи&lt;/span&gt;&lt;/div&gt;&lt;div&gt;&lt;span style=&quot;font-size: 16px;&quot;&gt;сравнителна таблица с поции на нашият obc&lt;/span&gt;&lt;/div&gt;&lt;div&gt;&lt;span style=&quot;font-size: 16px;&quot;&gt;етапи на разработка&amp;nbsp;&lt;/span&gt;&lt;/div&gt;&lt;div&gt;&lt;span style=&quot;font-size: 16px;&quot;&gt;начин на работа (+ блок схеми и диаграми)&lt;/span&gt;&lt;/div&gt;&lt;div&gt;&lt;span style=&quot;font-size: 16px;&quot;&gt;начини за тестване на системите&amp;nbsp;&lt;/span&gt;&lt;/div&gt;" style="text;html=1;align=center;verticalAlign=middle;whiteSpace=wrap;rounded=0;" vertex="1" parent="1">
          <mxGeometry x="250" y="520" width="450" height="210" as="geometry" />
        </mxCell>
        <mxCell id="FaHiJg0Yy64Cm1Oe79we-7" value="" style="rounded=0;whiteSpace=wrap;html=1;" vertex="1" parent="1">
          <mxGeometry x="240" y="800" width="470" height="300" as="geometry" />
        </mxCell>
        <mxCell id="FaHiJg0Yy64Cm1Oe79we-8" value="&lt;font style=&quot;font-size: 16px;&quot;&gt;Практическа част&lt;/font&gt;" style="text;html=1;align=center;verticalAlign=middle;whiteSpace=wrap;rounded=0;" vertex="1" parent="1">
          <mxGeometry x="407.5" y="820" width="135" height="30" as="geometry" />
        </mxCell>
        <mxCell id="FaHiJg0Yy64Cm1Oe79we-9" value="&lt;span style=&quot;font-size: 16px;&quot;&gt;кодове + описание на работата&amp;nbsp;&lt;/span&gt;&lt;div&gt;&lt;span style=&quot;font-size: 16px;&quot;&gt;снимки на системата и сравнение с диаграми&lt;/span&gt;&lt;/div&gt;&lt;div&gt;&lt;span style=&quot;font-size: 16px;&quot;&gt;резултати от тестовете на системите&amp;nbsp;&lt;/span&gt;&lt;/div&gt;&lt;div&gt;&lt;span style=&quot;font-size: 16px;&quot;&gt;pcb дизайн и описание на платките&lt;/span&gt;&lt;/div&gt;" style="text;html=1;align=center;verticalAlign=middle;whiteSpace=wrap;rounded=0;" vertex="1" parent="1">
          <mxGeometry x="250" y="860" width="450" height="210" as="geometry" />
        </mxCell>
        <mxCell id="FaHiJg0Yy64Cm1Oe79we-10" value="" style="rounded=0;whiteSpace=wrap;html=1;" vertex="1" parent="1">
          <mxGeometry x="240" y="1140" width="470" height="300" as="geometry" />
        </mxCell>
        <mxCell id="FaHiJg0Yy64Cm1Oe79we-11" value="&lt;span style=&quot;font-size: 16px;&quot;&gt;обобщение&lt;/span&gt;" style="text;html=1;align=center;verticalAlign=middle;whiteSpace=wrap;rounded=0;" vertex="1" parent="1">
          <mxGeometry x="407.5" y="1160" width="135" height="30" as="geometry" />
        </mxCell>
        <mxCell id="FaHiJg0Yy64Cm1Oe79we-12" value="&lt;span style=&quot;font-size: 16px;&quot;&gt;Финален обзор&lt;/span&gt;&lt;div&gt;&lt;span style=&quot;font-size: 16px;&quot;&gt;съпоставка с други сателити&lt;/span&gt;&lt;/div&gt;&lt;div&gt;&lt;span style=&quot;font-size: 16px;&quot;&gt;планове за развитие&lt;/span&gt;&lt;/div&gt;" style="text;html=1;align=center;verticalAlign=middle;whiteSpace=wrap;rounded=0;" vertex="1" parent="1">
          <mxGeometry x="250" y="1200" width="450" height="210" as="geometry" />
        </mxCell>
      </root>
    </mxGraphModel>
  </diagram>
</mxfile>
